<svg width="1280" height="832" viewBox="0 0 1280 832" fill="none" xmlns="http://www.w3.org/2000/svg">
<g clip-path="url(#clip0_66_1440)">
<rect width="1280" height="832" fill="white"/>
<rect width="1280" height="832" fill="url(#paint0_linear_66_1440)" fill-opacity="0.15"/>
<g opacity="0.1">
<path d="M1345.1 669C1270.49 625.922 1175.08 651.486 1132 726.1C1088.92 800.714 1114.49 896.122 1189.1 939.2C1263.71 982.278 1359.12 956.714 1402.2 882.1C1445.28 807.486 1419.71 712.078 1345.1 669Z" stroke="black" stroke-opacity="0.7" stroke-width="2.03822"/>
<path d="M1305.85 736.202C1268.27 714.506 1220.22 727.381 1198.53 764.959C1176.83 802.537 1189.7 850.588 1227.28 872.284C1264.86 893.98 1312.91 881.105 1334.61 843.527C1356.3 805.948 1343.43 757.898 1305.85 736.202Z" stroke="black" stroke-opacity="0.7" stroke-width="2.03822"/>
<path d="M1291.97 762.911C1268.81 749.538 1239.19 757.474 1225.82 780.637C1212.45 803.799 1220.38 833.416 1243.55 846.789C1266.71 860.162 1296.33 852.226 1309.7 829.064C1323.07 805.901 1315.13 776.284 1291.97 762.911Z" stroke="black" stroke-opacity="0.7" stroke-width="2.03822"/>
<path d="M1223.31 811.693C1220.98 810.347 1218 811.146 1216.65 813.478C1215.31 815.809 1216.11 818.791 1218.44 820.137C1220.77 821.483 1223.75 820.684 1225.1 818.353C1226.44 816.021 1225.64 813.04 1223.31 811.693Z" fill="black" fill-opacity="0.7"/>
<path d="M1190.57 798.196C1188.24 796.85 1185.26 797.649 1183.91 799.981C1182.57 802.312 1183.37 805.294 1185.7 806.64C1188.03 807.986 1191.01 807.187 1192.36 804.856C1193.7 802.524 1192.91 799.542 1190.57 798.196Z" fill="black" fill-opacity="0.7"/>
</g>
<g clip-path="url(#clip1_66_1440)">
<g clip-path="url(#clip2_66_1440)">
<g clip-path="url(#clip3_66_1440)">
<g opacity="0.1">
<path d="M134.87 283.007C235.608 228.849 273.368 103.281 219.21 2.54431C165.053 -98.1936 39.4848 -135.955 -61.2523 -81.7967C-161.99 -27.6388 -199.751 97.9285 -145.593 198.666C-91.4354 299.404 34.1319 337.165 134.87 283.007Z" stroke="black" stroke-opacity="0.7" stroke-width="1.88789" stroke-miterlimit="10"/>
<path d="M121.164 -179.868L-243.637 16.253L-47.5165 381.054L317.285 184.934L121.164 -179.868Z" stroke="black" stroke-opacity="0.7" stroke-width="1.88789" stroke-miterlimit="10"/>
<path d="M-240.308 22.5066C-239.547 22.0976 -238.874 21.5428 -238.328 20.8738C-237.781 20.2048 -237.372 19.4346 -237.123 18.6074C-236.875 17.7802 -236.791 16.9121 -236.878 16.0527C-236.965 15.1933 -237.22 14.3593 -237.629 13.5985C-238.245 12.4526 -239.187 11.5151 -240.335 10.9046C-241.484 10.2941 -242.788 10.038 -244.083 10.1686C-245.377 10.2993 -246.604 10.8108 -247.607 11.6386C-248.611 12.4663 -249.347 13.5731 -249.721 14.819C-250.096 16.0649 -250.093 17.3939 -249.712 18.6379C-249.331 19.8819 -248.59 20.9851 -247.583 21.808C-246.575 22.6308 -245.346 23.1364 -244.051 23.2608C-242.756 23.3851 -241.453 23.1227 -240.307 22.5066H-240.308ZM124.462 -173.599C125.232 -174.003 125.914 -174.555 126.468 -175.225C127.023 -175.894 127.44 -176.666 127.694 -177.497C127.948 -178.328 128.035 -179.202 127.95 -180.067C127.865 -180.932 127.609 -181.771 127.198 -182.537C126.786 -183.302 126.227 -183.979 125.553 -184.527C124.878 -185.075 124.102 -185.484 123.268 -185.73C122.435 -185.977 121.56 -186.055 120.696 -185.962C119.832 -185.868 118.995 -185.604 118.234 -185.185C116.715 -184.35 115.587 -182.949 115.096 -181.286C114.605 -179.624 114.79 -177.835 115.611 -176.308C116.431 -174.781 117.822 -173.64 119.479 -173.132C121.137 -172.625 122.928 -172.793 124.462 -173.599ZM-44.2028 387.277C-42.6663 386.451 -41.5209 385.048 -41.0186 383.378C-40.5162 381.707 -40.6981 379.905 -41.5241 378.369C-42.1401 377.223 -43.0822 376.285 -44.2311 375.674C-45.3801 375.064 -46.6844 374.807 -47.979 374.938C-49.2736 375.069 -50.5004 375.58 -51.5042 376.408C-52.5081 377.236 -53.2439 378.343 -53.6186 379.589C-53.9932 380.835 -53.99 382.164 -53.6092 383.408C-53.2284 384.653 -52.4872 385.756 -51.4794 386.579C-50.4715 387.402 -49.2422 387.908 -47.947 388.032C-46.6517 388.156 -45.3487 387.893 -44.2028 387.277ZM320.567 191.172C322.092 190.339 323.225 188.938 323.72 187.272C324.215 185.607 324.031 183.814 323.209 182.284C322.386 180.753 320.991 179.611 319.329 179.105C317.667 178.6 315.873 178.772 314.337 179.585C313.577 179.994 312.904 180.549 312.357 181.218C311.811 181.887 311.402 182.657 311.153 183.484C310.904 184.311 310.821 185.18 310.908 186.039C310.994 186.898 311.25 187.732 311.659 188.493C312.068 189.254 312.623 189.927 313.292 190.473C313.961 191.02 314.731 191.429 315.558 191.678C316.385 191.926 317.253 192.01 318.113 191.923C318.972 191.836 319.806 191.581 320.567 191.172Z" fill="black" fill-opacity="0.7"/>
</g>
</g>
</g>
</g>
<g clip-path="url(#clip4_66_1440)">
<g clip-path="url(#clip5_66_1440)">
<g clip-path="url(#clip6_66_1440)">
<g opacity="0.2">
<path d="M497.756 988.096L498.056 727.123L340.486 726.946C327.029 726.931 313.706 724.264 301.279 719.1C288.851 713.936 277.564 706.374 268.058 696.848C257.212 685.939 248.95 672.736 243.882 658.21C238.814 643.685 237.069 628.208 238.776 612.919C239.277 608.341 239.539 603.74 239.561 599.136C239.873 528.143 181.315 468.745 110.353 468.064C37.3927 467.365 -21.9444 526.568 -21.4049 599.529C-20.8838 670.515 38.3798 729.184 109.372 729.03C113.933 729.017 118.491 728.772 123.027 728.295C138.363 726.62 153.881 728.404 168.438 733.517C182.994 738.63 196.219 746.942 207.14 757.841L207.575 758.276C226.442 777.178 237.028 802.801 237.005 829.508L236.888 933.885C236.866 950.449 230.267 966.327 218.544 978.029L218.09 978.483C209.668 986.847 199.043 992.647 187.452 995.205C175.861 997.763 163.782 996.976 152.621 992.933C138.186 987.763 122.952 985.179 107.619 985.301C36.1298 985.797 -21.8035 1044.04 -21.9384 1115.53C-22.0855 1187.67 36.3565 1246.25 108.508 1246.27C179.997 1246.27 238.366 1188.49 239.022 1117.01C239.183 1101.68 236.634 1086.44 231.493 1071.99C227.477 1060.82 226.717 1048.74 229.302 1037.15C231.888 1025.57 237.713 1014.95 246.097 1006.55L246.379 1006.27C258.22 994.472 274.264 987.856 290.983 987.882L497.756 988.096Z" stroke="black" stroke-opacity="0.7" stroke-width="1.05818"/>
<path d="M13.5676 698.604C20.2831 698.604 25.7272 693.16 25.7272 686.445C25.7272 679.729 20.2831 674.285 13.5676 674.285C6.85205 674.285 1.40802 679.729 1.40802 686.445C1.40802 693.16 6.85205 698.604 13.5676 698.604Z" fill="black" fill-opacity="0.7"/>
</g>
</g>
</g>
</g>
<g clip-path="url(#clip7_66_1440)">
<g clip-path="url(#clip8_66_1440)">
<g clip-path="url(#clip9_66_1440)">
<g opacity="0.2">
<path d="M879.589 -162.257H679.028V38.3049H879.589V-162.257Z" stroke="black" stroke-opacity="0.7" stroke-width="1.01105"/>
<path d="M1080.15 38.3047H879.591V238.867H1080.15V38.3047Z" stroke="black" stroke-opacity="0.7" stroke-width="1.01105"/>
<path d="M879.589 238.865H679.027V439.427H879.589V238.865Z" stroke="black" stroke-opacity="0.7" stroke-width="1.01105"/>
<path d="M1280.71 -162.257H1080.15V38.3048H1280.71V-162.257Z" stroke="black" stroke-opacity="0.7" stroke-width="1.01105"/>
<path d="M1280.71 238.865H1080.15V439.427H1280.71V238.865Z" stroke="black" stroke-opacity="0.7" stroke-width="1.01105"/>
<path d="M780.785 38.3062L780.785 238.868" stroke="black" stroke-opacity="0.7" stroke-width="1.01105"/>
<path d="M1183.09 38.3047V77.5898C1183.09 112.421 1154.85 140.657 1120.02 140.657L1080.15 140.657" stroke="black" stroke-opacity="0.7" stroke-width="1.01105"/>
<path d="M879.614 50.1848C886.161 50.1848 891.469 44.8768 891.469 38.329C891.469 31.7812 886.161 26.4731 879.614 26.4731C873.066 26.4731 867.758 31.7812 867.758 38.329C867.758 44.8768 873.066 50.1848 879.614 50.1848Z" fill="black" fill-opacity="0.7"/>
<path d="M1183.12 250.743C1189.67 250.743 1194.98 245.435 1194.98 238.887C1194.98 232.339 1189.67 227.031 1183.12 227.031C1176.57 227.031 1171.27 232.339 1171.27 238.887C1171.27 245.435 1176.57 250.743 1183.12 250.743Z" fill="black" fill-opacity="0.7"/>
</g>
</g>
</g>
</g>
</g>
<defs>
<linearGradient id="paint0_linear_66_1440" x1="-3.8147e-05" y1="832" x2="1280" y2="-9.99157e-05" gradientUnits="userSpaceOnUse">
<stop offset="0.145833" stop-color="#FFCD6B" stop-opacity="0.88"/>
<stop offset="0.505208" stop-color="#FFF3F3" stop-opacity="0"/>
<stop offset="0.828125" stop-color="#7240C7" stop-opacity="0.7"/>
</linearGradient>
<clipPath id="clip0_66_1440">
<rect width="1280" height="832" fill="white"/>
</clipPath>
<clipPath id="clip1_66_1440">
<rect width="445" height="723" fill="white" transform="translate(-107 -325)"/>
</clipPath>
<clipPath id="clip2_66_1440">
<rect width="746.66" height="746.66" fill="white" transform="translate(-107 -272)"/>
</clipPath>
<clipPath id="clip3_66_1440">
<rect width="746.66" height="746.66" fill="white" transform="translate(-107 -272)"/>
</clipPath>
<clipPath id="clip4_66_1440">
<rect width="533.33" height="779.88" fill="white" transform="translate(-23 467)"/>
</clipPath>
<clipPath id="clip5_66_1440">
<rect width="533.33" height="779.88" fill="white" transform="translate(-23 467)"/>
</clipPath>
<clipPath id="clip6_66_1440">
<rect width="533.324" height="779.88" fill="white" transform="translate(-22.9968 467)"/>
</clipPath>
<clipPath id="clip7_66_1440">
<rect width="853.33" height="853.33" fill="white" transform="translate(979.395 -465) rotate(45)"/>
</clipPath>
<clipPath id="clip8_66_1440">
<rect width="853.33" height="853.33" fill="white" transform="translate(979.395 -465) rotate(45)"/>
</clipPath>
<clipPath id="clip9_66_1440">
<rect width="853.33" height="853.33" fill="white" transform="translate(979.395 -465) rotate(45)"/>
</clipPath>
</defs>
</svg>
