<svg width="100" height="100" viewBox="0 0 100 100" fill="none" xmlns="http://www.w3.org/2000/svg">
<mask id="mask0_309_1069" style="mask-type:alpha" maskUnits="userSpaceOnUse" x="0" y="0" width="100" height="100">
<rect width="100" height="100" fill="#D9D9D9"/>
</mask>
<g mask="url(#mask0_309_1069)">
<path d="M23.6104 91.6666C21.7007 91.6666 20.0658 90.9866 18.7059 89.6267C17.346 88.2668 16.666 86.6319 16.666 84.7222V68.7498H23.6104V84.7222H76.3883V68.7498H83.3327V84.7222C83.3327 86.6319 82.6527 88.2668 81.2928 89.6267C79.9329 90.9866 78.298 91.6666 76.3883 91.6666H23.6104ZM16.666 47.9167V15.2776C16.666 13.3679 17.346 11.7331 18.7059 10.3731C20.0658 9.01322 21.7007 8.33325 23.6104 8.33325H59.791L83.3327 31.8749V47.9167H76.3883V35.1388H56.3188V15.2776H23.6104V47.9167H16.666ZM36.8049 61.8054V54.8611H63.1938V61.8054H36.8049ZM70.1382 61.8054V54.8611H95.8327V61.8054H70.1382ZM4.16602 61.8054V54.8611H29.8605V61.8054H4.16602Z" fill="#763FC6"/>
</g>
</svg>
