<svg width="134" height="100" viewBox="0 0 134 100" fill="none" xmlns="http://www.w3.org/2000/svg">
<mask id="mask0_313_1139" style="mask-type:alpha" maskUnits="userSpaceOnUse" x="0" y="0" width="100" height="100">
<rect width="100" height="100" fill="#D9D9D9"/>
</mask>
<g mask="url(#mask0_313_1139)">
<path d="M16.9341 81.2499C15.1432 81.2499 13.6094 80.6114 12.3324 79.3345C11.0555 78.0576 10.417 76.5237 10.417 74.7328V25.2672C10.417 23.4764 11.0555 21.9425 12.3324 20.6655C13.6094 19.3886 15.1432 18.7501 16.9341 18.7501H83.0664C84.8572 18.7501 86.3911 19.3886 87.668 20.6655C88.945 21.9425 89.5835 23.4764 89.5835 25.2672V74.7328C89.5835 76.5237 88.945 78.0576 87.668 79.3345C86.3911 80.6114 84.8572 81.2499 83.0664 81.2499H16.9341ZM16.9341 76.015H47.3828V23.985H16.9341C16.6135 23.985 16.3197 24.1186 16.0526 24.3858C15.7855 24.6528 15.6519 24.9467 15.6519 25.2672V74.7328C15.6519 75.0534 15.7855 75.3472 16.0526 75.6143C16.3197 75.8814 16.6135 76.015 16.9341 76.015ZM52.6176 76.015H83.0664C83.3869 76.015 83.6807 75.8814 83.9478 75.6143C84.215 75.3472 84.3486 75.0534 84.3486 74.7328V25.2672C84.3486 24.9467 84.215 24.6528 83.9478 24.3858C83.6807 24.1186 83.3869 23.985 83.0664 23.985H52.6176V76.015ZM21.1274 65.7798H41.9073V60.545H21.1274V65.7798ZM21.1274 52.8151H41.9073V47.5802H21.1274V52.8151ZM21.1274 39.8503H41.9073V34.6154H21.1274V39.8503ZM58.0931 65.7798H78.873V60.545H58.0931V65.7798ZM58.0931 52.8151H78.873V47.5802H58.0931V52.8151ZM58.0931 39.8503H78.873V34.6154H58.0931V39.8503Z" fill="#27AE60"/>
</g>
<rect x="66" y="40" width="68" height="20" fill="#27AE60"/>
<path d="M91.152 55V50.26H85.632V55H84.648V45.292H85.632V49.324H91.152V45.292H92.136V55H91.152ZM94.4328 55H93.4488V45.292H94.4328V55ZM102.634 55L96.7297 46.42V55H95.7457V45.292H97.0417L102.934 53.872V45.292H103.918V55H102.634ZM113.362 50.152C113.362 52.828 111.298 55 108.766 55H105.226V45.292H108.766C111.298 45.292 113.362 47.476 113.362 50.152ZM106.198 46.228V54.064H108.634C110.41 54.064 112.162 52.6 112.354 50.548V50.512V50.5C112.354 50.488 112.354 50.488 112.354 50.476V50.464L112.366 50.44C112.366 50.356 112.366 50.26 112.366 50.152C112.366 50.128 112.366 50.092 112.366 50.068V50.044V50.032V50.02C112.306 47.86 110.518 46.228 108.634 46.228H106.198ZM115.269 55H114.285V45.292H115.269V55Z" fill="black"/>
</svg>
