<svg width="100" height="100" viewBox="0 0 100 100" fill="none" xmlns="http://www.w3.org/2000/svg">
<mask id="mask0_309_1098" style="mask-type:alpha" maskUnits="userSpaceOnUse" x="0" y="0" width="100" height="100">
<rect width="100" height="100" fill="#D9D9D9"/>
</mask>
<g mask="url(#mask0_309_1098)">
<path d="M16.9341 81.2499C15.1432 81.2499 13.6094 80.6114 12.3324 79.3345C11.0555 78.0576 10.417 76.5237 10.417 74.7328V25.2672C10.417 23.4764 11.0555 21.9425 12.3324 20.6655C13.6094 19.3886 15.1432 18.7501 16.9341 18.7501H41.8831L49.2016 26.0686H83.0664C84.8572 26.0686 86.3911 26.707 87.668 27.9839C88.945 29.2608 89.5835 30.7947 89.5835 32.5855V47.5294C88.7626 47.1341 87.9079 46.8647 87.0194 46.7214C86.1308 46.578 85.2406 46.5188 84.3486 46.5438V32.5855C84.3486 32.2651 84.215 31.9712 83.9478 31.7041C83.6807 31.437 83.3869 31.3035 83.0664 31.3035H47.0675L39.7492 23.985H16.9341C16.5601 23.985 16.2529 24.1052 16.0125 24.3456C15.7721 24.5861 15.6519 24.8932 15.6519 25.2672V74.7328C15.6519 75.0534 15.7855 75.3472 16.0526 75.6143C16.3197 75.8814 16.6135 76.015 16.9341 76.015H50.7533L50.6946 76.0738V81.2499H16.9341ZM58.8144 89.5833V78.5737L81.4345 56.0577C81.9527 55.5396 82.5136 55.175 83.1172 54.964C83.7208 54.753 84.3244 54.6475 84.928 54.6475C85.5744 54.6475 86.2061 54.7704 86.823 55.0161C87.4401 55.2618 87.9943 55.6304 88.4856 56.1218L92.3398 60.0161C92.817 60.5342 93.1714 61.0951 93.4028 61.6987C93.6344 62.3023 93.7501 62.906 93.7501 63.5096C93.7501 64.1132 93.6263 64.7275 93.3788 65.3525C93.1313 65.9775 92.7728 66.5491 92.3034 67.0672L69.8239 89.5833H58.8144ZM63.7822 84.6153H67.7405L81.2663 71.0255L79.3512 69.0464L77.4121 67.0913L63.7822 80.657V84.6153ZM79.3512 69.0464L77.4121 67.0913L81.2663 71.0255L79.3512 69.0464Z" fill="#F6D78B"/>
</g>
</svg>
