<svg width="93" height="94" viewBox="0 0 93 94" fill="none" xmlns="http://www.w3.org/2000/svg">
<mask id="mask0_313_1137" style="mask-type:alpha" maskUnits="userSpaceOnUse" x="0" y="0" width="93" height="94">
<rect y="0.75" width="92.5" height="92.5" fill="#D9D9D9"/>
</mask>
<g mask="url(#mask0_313_1137)">
<path d="M31.7375 68.4573H60.7623V64.0844H31.7375V68.4573ZM31.7375 52.3365H60.7623V47.9636H31.7375V52.3365ZM22.9027 83.6145C21.3913 83.6145 20.087 83.0658 18.9897 81.9686C17.8924 80.8713 17.3438 79.5669 17.3438 78.0555V15.9445C17.3438 14.433 17.8924 13.1287 18.9897 12.0314C20.087 10.9341 21.3913 10.3855 22.9027 10.3855H56.3894L75.1561 29.1522V78.0555C75.1561 79.5669 74.6074 80.8713 73.5101 81.9686C72.4129 83.0658 71.1085 83.6145 69.5971 83.6145H22.9027ZM54.2029 31.1237V14.7584H22.9027C22.6062 14.7584 22.3344 14.882 22.0873 15.129C21.8402 15.3761 21.7167 15.6479 21.7167 15.9445V78.0555C21.7167 78.352 21.8402 78.6238 22.0873 78.871C22.3344 79.118 22.6062 79.2415 22.9027 79.2415H69.5971C69.8936 79.2415 70.1654 79.118 70.4125 78.871C70.6596 78.6238 70.7831 78.352 70.7831 78.0555V31.1237H54.2029Z" fill="#EB5757"/>
</g>
</svg>
