<svg width="93" height="93" viewBox="0 0 93 93" fill="none" xmlns="http://www.w3.org/2000/svg">
<mask id="mask0_313_1138" style="mask-type:alpha" maskUnits="userSpaceOnUse" x="0" y="0" width="93" height="93">
<rect width="92.5" height="92.5" fill="#D9D9D9"/>
</mask>
<g mask="url(#mask0_313_1138)">
<path d="M15.664 75.1562C14.0075 75.1562 12.5887 74.5656 11.4075 73.3844C10.2263 72.2032 9.63574 70.7844 9.63574 69.1279V23.3722C9.63574 21.7157 10.2263 20.2968 11.4075 19.1156C12.5887 17.9345 14.0075 17.3439 15.664 17.3439H76.8364C78.4929 17.3439 79.9118 17.9345 81.093 19.1156C82.2741 20.2968 82.8647 21.7157 82.8647 23.3722V69.1279C82.8647 70.7844 82.2741 72.2032 81.093 73.3844C79.9118 74.5656 78.4929 75.1562 76.8364 75.1562H15.664ZM15.664 70.3139H43.8291V22.1862H15.664C15.3675 22.1862 15.0957 22.3097 14.8487 22.5568C14.6016 22.8039 14.478 23.0757 14.478 23.3722V69.1279C14.478 69.4244 14.6016 69.6962 14.8487 69.9432C15.0957 70.1903 15.3675 70.3139 15.664 70.3139ZM48.6713 70.3139H76.8364C77.1329 70.3139 77.4047 70.1903 77.6518 69.9432C77.8989 69.6962 78.0224 69.4244 78.0224 69.1279V23.3722C78.0224 23.0757 77.8989 22.8039 77.6518 22.5568C77.4047 22.3097 77.1329 22.1862 76.8364 22.1862H48.6713V70.3139ZM19.5429 60.8463H38.7643V56.0042H19.5429V60.8463ZM19.5429 48.854H38.7643V44.0117H19.5429V48.854ZM19.5429 36.8616H38.7643V32.0193H19.5429V36.8616ZM53.7362 60.8463H72.9576V56.0042H53.7362V60.8463ZM53.7362 48.854H72.9576V44.0117H53.7362V48.854ZM53.7362 36.8616H72.9576V32.0193H53.7362V36.8616Z" fill="#F28E56"/>
</g>
</svg>
