<svg width="116" height="100" viewBox="0 0 116 100" fill="none" xmlns="http://www.w3.org/2000/svg">
<mask id="mask0_313_1140" style="mask-type:alpha" maskUnits="userSpaceOnUse" x="0" y="0" width="100" height="100">
<rect width="100" height="100" fill="#D9D9D9"/>
</mask>
<g mask="url(#mask0_313_1140)">
<path d="M34.3108 73.1971H65.689V68.4696H34.3108V73.1971ZM34.3108 55.7691H65.689V51.0418H34.3108V55.7691ZM24.7597 89.5832C23.1257 89.5832 21.7156 88.9901 20.5294 87.8038C19.3431 86.6176 18.75 85.2075 18.75 83.5735V16.4264C18.75 14.7925 19.3431 13.3824 20.5294 12.1961C21.7156 11.0099 23.1257 10.4167 24.7597 10.4167H60.9615L81.2498 30.7051V83.5735C81.2498 85.2075 80.6567 86.6176 79.4704 87.8038C78.2842 88.9901 76.8741 89.5832 75.2401 89.5832H24.7597ZM58.5977 32.8364V15.1443H24.7597C24.4391 15.1443 24.1453 15.2778 23.8781 15.5449C23.611 15.812 23.4775 16.1059 23.4775 16.4264V83.5735C23.4775 83.8941 23.611 84.1879 23.8781 84.4551C24.1453 84.7222 24.4391 84.8557 24.7597 84.8557H75.2401C75.5607 84.8557 75.8545 84.7222 76.1217 84.4551C76.3887 84.1879 76.5223 83.8941 76.5223 83.5735V32.8364H58.5977Z" fill="#FFEFEF"/>
</g>
<rect x="48" y="40" width="68" height="20" fill="#FFEFEF"/>
<path d="M73.152 55V50.26H67.632V55H66.648V45.292H67.632V49.324H73.152V45.292H74.136V55H73.152ZM76.4328 55H75.4488V45.292H76.4328V55ZM84.6337 55L78.7297 46.42V55H77.7457V45.292H79.0417L84.9337 53.872V45.292H85.9177V55H84.6337ZM95.3621 50.152C95.3621 52.828 93.2981 55 90.7661 55H87.2261V45.292H90.7661C93.2981 45.292 95.3621 47.476 95.3621 50.152ZM88.1981 46.228V54.064H90.6341C92.4101 54.064 94.1621 52.6 94.3541 50.548V50.512V50.5C94.3541 50.488 94.3541 50.488 94.3541 50.476V50.464L94.3661 50.44C94.3661 50.356 94.3661 50.26 94.3661 50.152C94.3661 50.128 94.3661 50.092 94.3661 50.068V50.044V50.032V50.02C94.3061 47.86 92.5181 46.228 90.6341 46.228H88.1981ZM97.2687 55H96.2847V45.292H97.2687V55Z" fill="black"/>
</svg>
