<?xml version="1.0" encoding="utf-8"?>
<!-- Generator: Adobe Illustrator 27.5.0, SVG Export Plug-In . SVG Version: 6.00 Build 0)  -->
<svg version="1.1" xmlns="http://www.w3.org/2000/svg" xmlns:xlink="http://www.w3.org/1999/xlink" x="0px" y="0px"
	 viewBox="0 0 500 500" style="enable-background:new 0 0 500 500;" xml:space="preserve">
<g id="Floor">
	<path id="Floor_4_" style="fill:#F5F5F5;" d="M88.445,442.214c90.209,53.236,236.467,53.237,326.674,0.001
		c90.209-53.238,90.209-139.55,0-192.786c-90.209-53.237-236.467-53.237-326.676-0.001C-1.765,302.664-1.765,388.978,88.445,442.214
		z"/>
</g>
<g id="Shadow">
	<ellipse id="Shadows_1_" style="fill:#E0E0E0;" cx="391.138" cy="405.54" rx="44.191" ry="25.514"/>
</g>
<g id="Clouds">
	<g id="Clouds_7_">
		<path id="XMLID_968_" style="fill:#EBEBEB;" d="M363.419,77.137l7.668,4.428c-0.038-0.342-0.065-0.683-0.065-1.015v-2.222
			c0-3.953,2.776-5.556,6.199-3.579c1.386,0.8,2.662,2.069,3.695,3.553c0.561-4.971,4.461-6.823,9.198-4.088
			c5.122,2.957,9.275,10.149,9.275,16.064v3.324c0,1.532-0.283,2.822-0.785,3.85l6.37,3.677c1.899,1.097,3.439,3.763,3.439,5.956
			c0,2.193-1.539,3.082-3.439,1.985l-41.555-23.992c-1.899-1.097-3.439-3.763-3.439-5.956
			C359.981,76.93,361.52,76.041,363.419,77.137z"/>
		<path id="XMLID_867_" style="fill:#EBEBEB;" d="M330.602,99.481l5.787,3.341c-0.029-0.258-0.049-0.515-0.049-0.766v-1.677
			c0-2.984,2.095-4.193,4.679-2.701c1.046,0.604,2.009,1.562,2.788,2.682c0.423-3.752,3.367-5.149,6.942-3.085
			c3.866,2.232,7,7.66,7,12.124v2.508c0,1.156-0.214,2.13-0.593,2.906l4.807,2.775c1.433,0.827,2.595,2.84,2.595,4.495
			c0,1.655-1.162,2.326-2.595,1.498l-31.362-18.107c-1.434-0.827-2.595-2.84-2.595-4.495
			C328.007,99.325,329.169,98.654,330.602,99.481z"/>
	</g>
</g>
<g id="Plant">
	<g id="Plants_1_">
		<path id="XMLID_1526_" style="fill:#27DEBF;" d="M73.876,288.623c-0.566,0.307-11.021,3.275-14.895-1.841
			c-3.873-5.116,2.553-13.091-1.08-16.03c-3.633-2.939-13.815,0.017-16.266-6.174c-2.451-6.191,4.814-8.844,0.731-15.075
			c-2.572-3.925-8.886-6.123-9.442-9.751c-0.93-6.064,9.119-8.85,17.713-3.126c8.594,5.725,13.791,3.102,16.518,2.718
			c2.727-0.384,8.605,0.463,8.417,10.035C75.384,258.952,73.876,288.623,73.876,288.623z"/>
		<g id="XMLID_1524_">
			<path id="XMLID_1525_" style="fill:#FFFFFF;" d="M74.567,275.009c-0.274,0-0.515-0.198-0.561-0.477
				c-2.993-18.165-24.109-32.95-35.089-36.123c-0.302-0.087-0.477-0.403-0.389-0.705c0.087-0.301,0.403-0.475,0.705-0.389
				c11.228,3.244,32.826,18.394,35.897,37.032c0.051,0.31-0.16,0.604-0.47,0.655C74.629,275.007,74.598,275.009,74.567,275.009z"/>
		</g>
		<g id="XMLID_1517_">
			<path id="XMLID_1518_" style="fill:#FFFFFF;" d="M49.671,259.805c-0.195,0-0.384-0.1-0.491-0.278
				c-0.16-0.27-0.072-0.62,0.199-0.781c0.342-0.203,8.466-4.952,16.471-2.731c0.303,0.084,0.481,0.398,0.396,0.701
				c-0.084,0.303-0.395,0.484-0.701,0.396c-7.531-2.09-15.506,2.566-15.585,2.613C49.869,259.779,49.769,259.805,49.671,259.805z"/>
		</g>
	</g>
</g>
<g id="Device">
	<g id="Laptop">
		<path id="XMLID_30734_" style="fill:#37474F;" d="M77.929,295.599c0,2.59,1.939,5.81,4.331,7.19l121.326,70.047
			c2.391,1.381,6.269,1.381,8.66,0l166.007-95.844c2.391-1.381,4.33-4.6,4.33-7.191c0-2.591-1.938-5.81-4.33-7.191l-121.326-70.047
			c-2.391-1.381-6.269-1.381-8.66,0L82.259,288.409C79.867,289.79,77.929,293.009,77.929,295.599z"/>
		<path id="XMLID_980_" style="fill:#263238;" d="M207.917,364.5v9.37c-1.57,0-3.14-0.34-4.33-1.03l-121.33-70.05
			c-2.39-1.38-4.33-4.6-4.33-7.19c0-2.43,1.71-5.41,3.89-6.91c-1.94,1.39-1.79,3.43,0.44,4.72l121.33,70.05
			C204.777,364.15,206.348,364.5,207.917,364.5z"/>
		<path id="XMLID_30732_" style="fill:#455A64;" d="M73.867,288.564c-2.243-1.295-4.062-4.584-4.062-7.345l-0.001-144.785
			c0-2.761,1.939-6.119,4.33-7.5L240.142,33.09c2.391-1.381,6.149-1.45,8.392-0.155c2.244,1.295,4.063,4.584,4.063,7.345v144.785
			c0,2.761-1.939,6.119-4.33,7.5L82.259,288.409C79.867,289.79,76.11,289.859,73.867,288.564z"/>
		<path id="XMLID_979_" style="fill:#263238;" d="M81.747,288.67c-2.39,1.12-5.79,1.1-7.88-0.11c-2.24-1.29-4.06-4.58-4.06-7.34
			V136.43c0-1.38,0.48-2.91,1.27-4.26l8.12,4.68v0.01c-0.78,1.36-1.27,2.88-1.27,4.26v144.79
			C77.927,288.47,79.598,289.62,81.747,288.67z"/>
		<path id="XMLID_30730_" style="fill:#37474F;" d="M77.929,141.124v144.785c0,2.761,1.939,3.881,4.33,2.5l166.008-95.844
			c2.391-1.381,4.33-4.739,4.33-7.5V40.28c0-2.761-1.939-3.881-4.33-2.5L82.259,133.624
			C79.867,135.005,77.929,138.363,77.929,141.124z"/>
		<path id="XMLID_30712_" style="fill:#455A64;" d="M82.259,293.409l121.327,70.047c2.391,1.381,6.269,1.381,8.66,0l166.008-95.844
			c2.391-1.381,2.391-3.619,0-5l-121.326-70.047c-2.391-1.381-6.269-1.381-8.66,0L82.259,288.409
			C79.867,289.79,79.867,292.028,82.259,293.409z"/>
		<path id="XMLID_30711_" style="fill:#FFFFFF;" d="M84.588,141.66l160.053-92.382c1.435-0.828,2.598-0.157,2.598,1.5v125.334
			c0,1.657-1.163,3.672-2.598,4.5L84.588,272.992c-1.435,0.828-2.598,0.157-2.598-1.5V146.159
			C81.99,144.503,83.153,142.488,84.588,141.66z"/>
		<path id="XMLID_1_" style="opacity:0.6;fill:#27DEBF;" d="M84.588,141.66l160.053-92.382c1.435-0.828,2.598-0.157,2.598,1.5
			v125.334c0,1.657-1.163,3.672-2.598,4.5L84.588,272.992c-1.435,0.828-2.598,0.157-2.598-1.5V146.159
			C81.99,144.503,83.153,142.488,84.588,141.66z"/>
		<g id="XMLID_1364_">
			<path id="XMLID_1366_" style="fill:#F0F0F0;" d="M164.273,133.735c4.261-2.461,7.716-0.466,7.716,4.454
				c0,4.921-3.455,10.904-7.716,13.364c-4.261,2.46-7.716,0.466-7.716-4.455C156.557,142.178,160.012,136.195,164.273,133.735z"/>
			<path id="XMLID_1365_" style="fill:#F0F0F0;" d="M179.479,160.05c0-8.084-5.676-11.673-12.676-7.631l-4.377,2.526
				c-7,4.042-12.676,13.872-12.676,21.956v2.176l29.729-17.152V160.05z"/>
		</g>
		<g id="XMLID_1380_">
			<path id="XMLID_1396_" style="fill:#F0F0F0;" d="M194.512,164.044c-0.283-0.652-1.001-0.817-1.814-0.351l-51.917,29.956
				c-0.523,0.301-1.011,0.825-1.355,1.434c-0.351,0.602-0.563,1.276-0.563,1.893v6.109c0,1.04,0.62,1.549,1.459,1.312
				c0.087-0.025,0.136-0.043,0.136-0.043c0.115-0.043,0.222-0.1,0.323-0.158l51.917-29.956c1.061-0.609,1.922-2.101,1.922-3.327
				v-6.109C194.619,164.561,194.591,164.255,194.512,164.044z"/>
			<g id="XMLID_1381_">
				<path id="XMLID_1393_" style="fill:#27DEBF;" d="M145.473,194.406c1.007-0.581,1.824-0.11,1.824,1.053s-0.816,2.577-1.824,3.159
					s-1.824,0.11-1.824-1.053S144.465,194.987,145.473,194.406z"/>
				<path id="XMLID_1392_" style="fill:#27DEBF;" d="M151.506,190.923c1.007-0.582,1.824-0.11,1.824,1.053
					c0,1.163-0.817,2.577-1.824,3.159c-1.007,0.581-1.824,0.11-1.824-1.053S150.498,191.504,151.506,190.923z"/>
				<path id="XMLID_1391_" style="fill:#27DEBF;" d="M157.539,187.439c1.007-0.581,1.824-0.11,1.824,1.053s-0.816,2.577-1.824,3.159
					s-1.824,0.11-1.824-1.053S156.531,188.021,157.539,187.439z"/>
				<path id="XMLID_1389_" style="fill:#27DEBF;" d="M163.572,183.956c1.007-0.582,1.824-0.11,1.824,1.053s-0.816,2.577-1.824,3.159
					s-1.824,0.11-1.824-1.053S162.564,184.538,163.572,183.956z"/>
				<path id="XMLID_1385_" style="fill:#27DEBF;" d="M169.605,180.473c1.007-0.581,1.824-0.11,1.824,1.053s-0.817,2.577-1.824,3.159
					c-1.007,0.581-1.824,0.11-1.824-1.053S168.597,181.055,169.605,180.473z"/>
				<path id="XMLID_1384_" style="fill:#27DEBF;" d="M175.637,176.99c1.007-0.581,1.824-0.11,1.824,1.053s-0.816,2.577-1.824,3.159
					s-1.824,0.11-1.824-1.053S174.63,177.572,175.637,176.99z"/>
				<path id="XMLID_1383_" style="fill:#27DEBF;" d="M181.67,173.507c1.007-0.581,1.824-0.11,1.824,1.053s-0.816,2.577-1.824,3.159
					c-1.007,0.582-1.824,0.11-1.824-1.053S180.663,174.089,181.67,173.507z"/>
				<path id="XMLID_1382_" style="fill:#27DEBF;" d="M187.703,170.024c1.007-0.581,1.824-0.11,1.824,1.053
					c0,1.163-0.816,2.577-1.824,3.159c-1.007,0.581-1.824,0.11-1.824-1.053C185.88,172.02,186.696,170.605,187.703,170.024z"/>
			</g>
		</g>
		<path id="XMLID_30710_" style="fill:#37474F;" d="M96.342,289.66l154.091-88.963c1.196-0.69,3.134-0.69,4.33,0l7.881,4.55
			c1.196,0.69,1.196,1.81,0,2.5L108.53,296.696c-1.196,0.69-3.135,0.69-4.33,0l-7.858-4.536
			C95.146,291.469,95.146,290.35,96.342,289.66z"/>
		<path id="XMLID_30704_" style="fill:#263238;" d="M116.654,301.386l154.089-88.965c1.196-0.69,3.134-0.69,4.33,0l48.477,27.989
			c1.196,0.69,1.196,1.81,0,2.5l-153.913,88.842c-1.196,0.69-3.136,0.693-4.334,0.007l-48.644-27.879
			C115.46,303.192,115.458,302.076,116.654,301.386z"/>
		<path id="XMLID_172_" style="fill:#455A64;" d="M254.781,252.447l4.824-2.785c0.205-0.119,0.193-0.318-0.027-0.445l-5.579-3.221
			c-0.22-0.127-0.565-0.134-0.77-0.016l-4.825,2.786c-0.205,0.118-0.193,0.317,0.028,0.444l5.579,3.221
			C254.231,252.558,254.576,252.565,254.781,252.447z M245.26,241.379l-4.825,2.785c-0.205,0.119-0.192,0.318,0.028,0.445
			l5.579,3.221c0.22,0.127,0.565,0.134,0.77,0.016l4.824-2.786c0.205-0.118,0.193-0.317-0.027-0.444l-5.579-3.221
			C245.81,241.268,245.465,241.261,245.26,241.379z M229.673,250.379l-8.165,4.714c-0.205,0.118-0.193,0.317,0.027,0.444
			l5.579,3.221c0.22,0.127,0.565,0.134,0.77,0.016l8.165-4.714c0.205-0.118,0.193-0.317-0.027-0.444l-5.578-3.221
			C230.223,250.267,229.878,250.26,229.673,250.379z M238.209,245.45l-4.825,2.786c-0.204,0.118-0.193,0.317,0.028,0.444
			l5.579,3.221c0.22,0.127,0.564,0.134,0.769,0.016l4.825-2.785c0.205-0.119,0.193-0.317-0.027-0.444l-5.579-3.221
			C238.759,245.339,238.414,245.332,238.209,245.45z M219.282,256.378l-4.824,2.785c-0.205,0.119-0.193,0.317,0.027,0.444
			l5.579,3.221c0.22,0.127,0.564,0.134,0.769,0.016l4.825-2.786c0.205-0.118,0.193-0.317-0.028-0.444l-5.578-3.221
			C219.831,256.267,219.486,256.26,219.282,256.378z M212.23,260.449l-4.824,2.785c-0.205,0.118-0.193,0.317,0.027,0.444
			l5.579,3.221c0.22,0.127,0.565,0.134,0.77,0.016l4.825-2.785c0.205-0.119,0.193-0.317-0.027-0.444L213,260.465
			C212.78,260.338,212.436,260.331,212.23,260.449z M234.174,273.547l4.825-2.786c0.204-0.118,0.193-0.317-0.028-0.444l-5.579-3.221
			c-0.22-0.127-0.565-0.134-0.77-0.016l-4.825,2.785c-0.205,0.119-0.193,0.317,0.027,0.445l5.579,3.221
			C233.624,273.658,233.969,273.665,234.174,273.547z M227.123,277.618l4.824-2.785c0.205-0.119,0.193-0.317-0.028-0.445
			l-5.578-3.22c-0.22-0.127-0.565-0.134-0.77-0.016l-4.824,2.786c-0.205,0.118-0.193,0.318,0.027,0.444l5.579,3.221
			C226.574,277.729,226.918,277.736,227.123,277.618z M220.072,281.689l4.825-2.786c0.205-0.118,0.193-0.317-0.027-0.444
			l-5.579-3.221c-0.22-0.127-0.565-0.134-0.77-0.016l-4.824,2.785c-0.205,0.119-0.193,0.317,0.028,0.444l5.578,3.221
			C219.522,281.8,219.867,281.807,220.072,281.689z M213.02,285.76l4.825-2.785c0.205-0.118,0.193-0.317-0.028-0.444l-5.578-3.221
			c-0.22-0.127-0.565-0.134-0.77-0.016l-4.824,2.785c-0.205,0.118-0.193,0.317,0.027,0.444l5.579,3.22
			C212.471,285.871,212.815,285.879,213.02,285.76z M247.73,256.518l4.824-2.786c0.205-0.118,0.193-0.317-0.027-0.444l-5.579-3.221
			c-0.22-0.127-0.564-0.134-0.769-0.016l-4.825,2.785c-0.205,0.119-0.193,0.318,0.027,0.445l5.579,3.221
			C247.18,256.63,247.525,256.636,247.73,256.518z M241.226,269.476l10.762-6.214c0.205-0.119,0.192-0.317-0.028-0.444
			l-13.548-7.822c-0.22-0.127-0.565-0.134-0.77-0.016l-5.567,3.214c-0.205,0.119-0.193,0.317,0.027,0.445l7.173,4.141
			c0.22,0.127,0.232,0.326,0.027,0.444l-4.453,2.571c-0.205,0.118-0.193,0.317,0.027,0.444l5.579,3.221
			C240.676,269.587,241.021,269.594,241.226,269.476z M205.179,264.52l-4.825,2.786c-0.205,0.118-0.193,0.317,0.028,0.444
			l5.579,3.221c0.22,0.127,0.564,0.134,0.77,0.016l4.825-2.785c0.205-0.119,0.193-0.317-0.028-0.445l-5.578-3.221
			C205.729,264.409,205.384,264.402,205.179,264.52z M198.128,268.591l-4.825,2.785c-0.205,0.119-0.193,0.318,0.027,0.445
			l5.578,3.221c0.22,0.127,0.565,0.134,0.77,0.016l4.824-2.786c0.205-0.118,0.193-0.318-0.027-0.444l-5.579-3.221
			C198.677,268.48,198.333,268.473,198.128,268.591z M162.892,314.242c0.22,0.127,0.564,0.134,0.77,0.016l4.825-2.786
			c0.205-0.118,0.193-0.318-0.027-0.445l-5.579-3.221c-0.22-0.127-0.565-0.134-0.77-0.016l-4.824,2.785
			c-0.205,0.119-0.193,0.317,0.027,0.445L162.892,314.242z M141.717,301.16l-4.825,2.785c-0.205,0.118-0.193,0.317,0.027,0.444
			l5.579,3.221c0.22,0.127,0.565,0.135,0.77,0.016l4.825-2.785c0.205-0.118,0.193-0.317-0.028-0.444l-5.579-3.22
			C142.267,301.049,141.923,301.041,141.717,301.16z M153.066,310.712c0.22,0.127,0.565,0.134,0.77,0.016l4.825-2.786
			c0.205-0.118,0.192-0.317-0.028-0.444l-5.578-3.221c-0.22-0.127-0.564-0.134-0.77-0.016l-4.824,2.785
			c-0.205,0.119-0.193,0.317,0.027,0.444L153.066,310.712z M175.342,316.716l4.825-2.785c0.205-0.119,0.193-0.317-0.027-0.444
			l-5.579-3.221c-0.22-0.127-0.565-0.134-0.77-0.015l-4.824,2.785c-0.204,0.118-0.193,0.317,0.028,0.444l5.579,3.22
			C174.793,316.827,175.137,316.835,175.342,316.716z M167.521,320.771c0.22,0.127,0.565,0.134,0.769,0.016l4.825-2.786
			c0.205-0.118,0.193-0.317-0.027-0.444l-5.579-3.221c-0.22-0.127-0.564-0.134-0.77-0.016l-4.825,2.786
			c-0.205,0.118-0.193,0.317,0.028,0.444L167.521,320.771z M148.769,297.089l-4.825,2.785c-0.205,0.119-0.193,0.317,0.028,0.444
			l5.578,3.221c0.22,0.127,0.565,0.134,0.77,0.016l4.824-2.786c0.205-0.118,0.193-0.317-0.027-0.444l-5.579-3.221
			C149.318,296.977,148.974,296.97,148.769,297.089z M184.025,276.733l-4.825,2.785c-0.204,0.119-0.193,0.317,0.028,0.444
			l5.579,3.221c0.22,0.127,0.564,0.134,0.77,0.016l4.825-2.786c0.205-0.118,0.193-0.317-0.027-0.444l-5.579-3.221
			C184.574,276.622,184.23,276.615,184.025,276.733z M155.82,293.018l-4.825,2.785c-0.205,0.118-0.193,0.317,0.027,0.444
			l5.579,3.221c0.22,0.127,0.565,0.135,0.77,0.016l4.824-2.785c0.205-0.119,0.193-0.317-0.028-0.444l-5.578-3.221
			C156.37,292.906,156.025,292.899,155.82,293.018z M191.076,272.662l-4.824,2.786c-0.205,0.118-0.193,0.317,0.028,0.444
			l5.579,3.221c0.22,0.127,0.564,0.135,0.77,0.016l4.825-2.785c0.205-0.119,0.193-0.317-0.027-0.444l-5.579-3.221
			C191.626,272.551,191.281,272.544,191.076,272.662z M176.974,280.805l-4.825,2.785c-0.205,0.118-0.193,0.317,0.027,0.444
			l5.579,3.22c0.22,0.127,0.565,0.135,0.77,0.016l4.824-2.785c0.205-0.118,0.193-0.317-0.027-0.444l-5.579-3.221
			C177.524,280.693,177.179,280.686,176.974,280.805z M169.923,284.875l-4.824,2.786c-0.205,0.118-0.193,0.317,0.027,0.444
			l5.579,3.221c0.22,0.127,0.565,0.134,0.77,0.016l4.825-2.785c0.204-0.119,0.192-0.318-0.028-0.445l-5.578-3.221
			C170.472,284.764,170.127,284.757,169.923,284.875z M162.872,288.947l-4.825,2.785c-0.205,0.119-0.193,0.318,0.027,0.445
			l5.579,3.221c0.22,0.127,0.565,0.134,0.77,0.016l4.825-2.786c0.205-0.118,0.193-0.318-0.028-0.445l-5.579-3.22
			C163.421,288.835,163.077,288.828,162.872,288.947z M198.918,293.902l4.825-2.786c0.205-0.118,0.193-0.318-0.027-0.444
			l-5.579-3.221c-0.22-0.127-0.565-0.134-0.77-0.016l-4.825,2.785c-0.205,0.119-0.193,0.317,0.028,0.445l5.579,3.221
			C198.368,294.014,198.713,294.021,198.918,293.902z M260.847,232.38l-4.824,2.786c-0.205,0.118-0.192,0.317,0.027,0.444
			l5.579,3.221c0.22,0.127,0.565,0.134,0.77,0.016l4.825-2.785c0.205-0.119,0.192-0.317-0.027-0.445l-5.579-3.221
			C261.397,232.269,261.052,232.262,260.847,232.38z M252.311,237.308l-4.825,2.786c-0.205,0.118-0.193,0.317,0.027,0.444
			l5.579,3.221c0.22,0.127,0.565,0.134,0.77,0.016l4.825-2.785c0.205-0.119,0.193-0.318-0.027-0.445l-5.579-3.221
			C252.861,237.197,252.516,237.19,252.311,237.308z M267.898,228.309l-4.824,2.785c-0.205,0.118-0.193,0.317,0.027,0.445
			l5.579,3.221c0.22,0.127,0.565,0.134,0.769,0.016l4.825-2.785c0.205-0.119,0.193-0.318-0.027-0.445l-5.578-3.221
			C268.448,228.198,268.104,228.191,267.898,228.309z M231.4,265.946l4.825-2.785c0.205-0.119,0.193-0.317-0.028-0.445l-5.578-3.221
			c-0.22-0.127-0.565-0.134-0.77-0.016l-4.825,2.786c-0.205,0.118-0.193,0.317,0.027,0.444l5.579,3.221
			C230.851,266.057,231.195,266.064,231.4,265.946z M275.719,224.254c-0.22-0.127-0.565-0.134-0.77-0.016l-4.824,2.785
			c-0.205,0.119-0.193,0.317,0.027,0.444l5.579,3.221c0.22,0.127,0.565,0.134,0.769,0.016l4.825-2.786
			c0.205-0.118,0.193-0.317-0.027-0.444L275.719,224.254z M205.969,289.831l4.824-2.785c0.205-0.119,0.193-0.317-0.028-0.444
			l-5.579-3.221c-0.22-0.127-0.564-0.134-0.77-0.016l-4.825,2.786c-0.205,0.118-0.193,0.317,0.027,0.444l5.578,3.221
			C205.419,289.943,205.764,289.949,205.969,289.831z M292.44,239.907l4.825-2.785c0.205-0.118,0.193-0.318-0.027-0.445l-5.579-3.22
			c-0.22-0.127-0.565-0.134-0.77-0.016l-4.824,2.785c-0.205,0.118-0.193,0.317,0.027,0.445l5.579,3.221
			C291.891,240.018,292.235,240.025,292.44,239.907z M277.42,239.377l4.825-2.786c0.205-0.118,0.193-0.317-0.028-0.444l-5.579-3.221
			c-0.22-0.127-0.565-0.134-0.769-0.016l-4.825,2.785c-0.205,0.119-0.193,0.317,0.027,0.445l5.579,3.221
			C276.87,239.488,277.215,239.495,277.42,239.377z M283.689,228.855c-0.22-0.127-0.565-0.134-0.77-0.016l-4.825,2.786
			c-0.204,0.118-0.193,0.317,0.028,0.444l5.579,3.221c0.22,0.127,0.565,0.134,0.769,0.016l4.825-2.785
			c0.205-0.119,0.193-0.317-0.027-0.444L283.689,228.855z M285.174,227.998l13.548,7.822c0.22,0.127,0.564,0.134,0.77,0.016
			l4.824-2.785c0.205-0.119,0.193-0.317-0.027-0.445l-13.549-7.822c-0.22-0.127-0.565-0.134-0.77-0.016l-4.824,2.785
			C284.941,227.672,284.953,227.871,285.174,227.998z M268.817,236.982l-4.824,2.785c-0.205,0.118-0.193,0.317,0.027,0.444
			l5.579,3.22c0.22,0.127,0.565,0.135,0.77,0.016l4.824-2.785c0.205-0.119,0.193-0.317-0.027-0.445l-5.579-3.221
			C269.366,236.87,269.022,236.863,268.817,236.982z M215.747,267.621l-4.825,2.786c-0.205,0.118-0.193,0.317,0.027,0.444
			l5.579,3.221c0.22,0.127,0.565,0.134,0.77,0.016l4.825-2.785c0.205-0.119,0.192-0.317-0.028-0.444l-5.578-3.221
			C216.296,267.51,215.952,267.503,215.747,267.621z M284.62,243.962c0.22,0.127,0.565,0.134,0.77,0.016l4.825-2.785
			c0.204-0.119,0.193-0.317-0.028-0.444l-5.579-3.221c-0.22-0.127-0.565-0.134-0.769-0.016l-4.825,2.786
			c-0.205,0.118-0.193,0.317,0.027,0.444L284.62,243.962z M222.798,263.551l-4.825,2.785c-0.205,0.119-0.192,0.317,0.028,0.444
			l5.578,3.221c0.22,0.127,0.564,0.134,0.77,0.016l4.825-2.786c0.205-0.118,0.193-0.317-0.027-0.444l-5.579-3.221
			C223.347,263.439,223.003,263.432,222.798,263.551z M169.943,310.171c0.22,0.127,0.565,0.134,0.77,0.016l4.825-2.785
			c0.204-0.119,0.193-0.317-0.028-0.444l-5.579-3.221c-0.22-0.127-0.564-0.134-0.769-0.016l-4.825,2.786
			c-0.205,0.118-0.193,0.317,0.027,0.444L169.943,310.171z M159.336,300.19l-4.825,2.786c-0.205,0.118-0.193,0.317,0.028,0.444
			l5.579,3.221c0.22,0.127,0.565,0.134,0.77,0.016l4.825-2.785c0.205-0.119,0.193-0.317-0.027-0.445l-5.579-3.221
			C159.886,300.079,159.541,300.072,159.336,300.19z M177.764,306.115l4.825-2.785c0.205-0.118,0.193-0.317-0.027-0.444l-5.579-3.22
			c-0.22-0.127-0.565-0.135-0.77-0.016l-4.825,2.785c-0.204,0.118-0.193,0.317,0.028,0.444l5.579,3.221
			C177.214,306.226,177.559,306.234,177.764,306.115z M184.815,302.045l4.825-2.785c0.205-0.119,0.193-0.317-0.027-0.444
			l-5.579-3.221c-0.219-0.127-0.564-0.134-0.77-0.016l-4.824,2.785c-0.205,0.119-0.193,0.317,0.028,0.444l5.579,3.221
			C184.265,302.156,184.61,302.163,184.815,302.045z M191.866,297.973l4.825-2.785c0.205-0.119,0.193-0.317-0.027-0.445
			l-5.579-3.221c-0.22-0.127-0.564-0.134-0.77-0.015l-4.824,2.785c-0.205,0.118-0.193,0.318,0.027,0.444l5.578,3.221
			C191.317,298.085,191.661,298.092,191.866,297.973z M166.387,296.119l-4.824,2.785c-0.205,0.118-0.193,0.317,0.027,0.445
			l5.579,3.22c0.22,0.127,0.564,0.134,0.77,0.016l4.825-2.785c0.205-0.118,0.193-0.318-0.027-0.445l-5.579-3.221
			C166.937,296.008,166.593,296.001,166.387,296.119z M173.439,292.048l-4.825,2.785c-0.205,0.119-0.193,0.317,0.027,0.444
			l5.579,3.221c0.22,0.127,0.565,0.134,0.77,0.016l4.825-2.786c0.204-0.118,0.193-0.317-0.028-0.444l-5.579-3.221
			C173.988,291.937,173.644,291.93,173.439,292.048z M201.644,275.764l-4.825,2.785c-0.205,0.119-0.193,0.317,0.028,0.445
			l5.579,3.22c0.22,0.127,0.564,0.134,0.77,0.016l4.824-2.785c0.205-0.118,0.193-0.318-0.027-0.445l-5.579-3.22
			C202.193,275.652,201.849,275.645,201.644,275.764z M194.593,279.835l-4.825,2.786c-0.205,0.118-0.193,0.318,0.027,0.444
			l5.578,3.221c0.22,0.127,0.565,0.134,0.77,0.016l4.825-2.785c0.205-0.119,0.193-0.317-0.027-0.445l-5.579-3.221
			C195.142,279.723,194.798,279.716,194.593,279.835z M208.695,271.692l-4.825,2.785c-0.205,0.119-0.193,0.317,0.027,0.444
			l5.578,3.221c0.22,0.127,0.565,0.134,0.77,0.016l4.825-2.786c0.205-0.118,0.193-0.317-0.028-0.444l-5.579-3.221
			C209.245,271.581,208.9,271.574,208.695,271.692z M180.49,287.977l-4.825,2.786c-0.205,0.118-0.193,0.317,0.027,0.444l5.579,3.221
			c0.22,0.127,0.564,0.134,0.77,0.016l4.825-2.785c0.205-0.119,0.193-0.317-0.027-0.444l-5.579-3.22
			C181.04,287.866,180.695,287.858,180.49,287.977z M187.541,283.906l-4.825,2.785c-0.205,0.119-0.193,0.317,0.028,0.444
			l5.579,3.221c0.22,0.127,0.564,0.134,0.769,0.016l4.824-2.786c0.205-0.118,0.193-0.317-0.027-0.444l-5.579-3.221
			C188.091,283.794,187.746,283.788,187.541,283.906z M182.393,312.645l4.824-2.786c0.205-0.118,0.193-0.317-0.027-0.444
			l-5.579-3.221c-0.22-0.127-0.564-0.134-0.77-0.016l-4.824,2.785c-0.205,0.119-0.193,0.318,0.027,0.445l5.578,3.221
			C181.844,312.756,182.188,312.763,182.393,312.645z M141.015,308.467l-5.579-3.221c-0.22-0.127-0.564-0.134-0.77-0.016
			l-4.824,2.786c-0.205,0.118-0.193,0.317,0.027,0.444l5.579,3.221c0.22,0.127,0.565,0.134,0.77,0.016l4.824-2.785
			C141.247,308.793,141.234,308.595,141.015,308.467z M151.582,311.569l-5.579-3.221c-0.22-0.127-0.564-0.135-0.77-0.016
			l-7.422,4.285c-0.205,0.118-0.193,0.317,0.028,0.444l5.579,3.22c0.22,0.127,0.564,0.135,0.77,0.016l7.422-4.285
			C151.814,311.895,151.802,311.696,151.582,311.569z M132.455,302.24l-5.578-3.221c-0.22-0.127-0.564-0.135-0.77-0.016
			l-5.938,3.428c-0.205,0.118-0.193,0.318,0.028,0.444l5.578,3.221c0.22,0.127,0.565,0.134,0.77,0.016l5.938-3.428
			C132.688,302.567,132.675,302.367,132.455,302.24z M137.008,299.612c0.22,0.127,0.564,0.134,0.769,0.016l4.824-2.786
			c0.205-0.118,0.193-0.317-0.027-0.444l-5.579-3.221c-0.22-0.127-0.565-0.134-0.77-0.016l-4.824,2.785
			c-0.205,0.119-0.193,0.317,0.027,0.444L137.008,299.612z M161.407,315.099l-5.579-3.221c-0.22-0.127-0.565-0.134-0.77-0.015
			l-9.278,5.356c-0.205,0.119-0.193,0.317,0.028,0.444l5.578,3.221c0.22,0.127,0.564,0.134,0.77,0.016l9.278-5.357
			C161.64,315.425,161.627,315.226,161.407,315.099z M166.037,321.628l-5.579-3.22c-0.219-0.127-0.564-0.135-0.769-0.016
			l-5.938,3.428c-0.205,0.118-0.193,0.318,0.027,0.444l5.579,3.221c0.22,0.127,0.565,0.134,0.77,0.016l5.938-3.428
			C166.269,321.955,166.256,321.755,166.037,321.628z M189.435,269.343c0.22,0.127,0.564,0.134,0.769,0.016l4.824-2.786
			c0.205-0.118,0.193-0.317-0.027-0.444l-5.579-3.221c-0.22-0.127-0.565-0.134-0.77-0.016l-4.824,2.785
			c-0.205,0.119-0.193,0.317,0.027,0.444L189.435,269.343z M175.332,277.486c0.22,0.127,0.565,0.134,0.77,0.016l4.825-2.786
			c0.205-0.118,0.193-0.317-0.028-0.444l-5.579-3.221c-0.22-0.127-0.564-0.134-0.77-0.016l-4.825,2.785
			c-0.205,0.119-0.193,0.317,0.027,0.445L175.332,277.486z M144.059,295.541c0.22,0.127,0.565,0.135,0.77,0.016l4.825-2.785
			c0.205-0.118,0.193-0.317-0.027-0.444l-5.579-3.221c-0.22-0.127-0.564-0.134-0.77-0.016l-4.825,2.785
			c-0.205,0.118-0.193,0.317,0.027,0.444L144.059,295.541z M182.383,273.414c0.22,0.127,0.565,0.135,0.77,0.016l4.825-2.785
			c0.205-0.118,0.192-0.317-0.028-0.444l-5.578-3.221c-0.22-0.127-0.564-0.134-0.77-0.016l-4.824,2.785
			c-0.205,0.118-0.193,0.317,0.027,0.444L182.383,273.414z M168.281,281.557c0.22,0.127,0.565,0.134,0.77,0.015l4.824-2.785
			c0.205-0.118,0.193-0.318-0.027-0.445l-5.578-3.221c-0.22-0.127-0.565-0.134-0.77-0.016l-4.825,2.785
			c-0.205,0.119-0.193,0.317,0.028,0.445L168.281,281.557z M169.912,322.152c-0.22-0.127-0.565-0.135-0.77-0.016l-7.422,4.285
			c-0.205,0.118-0.193,0.317,0.027,0.444l5.579,3.221c0.22,0.127,0.564,0.134,0.77,0.016l7.422-4.285
			c0.205-0.118,0.193-0.317-0.028-0.444L169.912,322.152z M158.162,287.399c0.22,0.127,0.564,0.134,0.77,0.016l4.825-2.785
			c0.205-0.119,0.193-0.317-0.027-0.445l-5.579-3.221c-0.22-0.127-0.565-0.134-0.77-0.016l-4.825,2.786
			c-0.205,0.118-0.193,0.317,0.027,0.444L158.162,287.399z M151.11,291.47c0.22,0.127,0.565,0.134,0.77,0.016l4.824-2.786
			c0.205-0.118,0.193-0.317-0.027-0.444l-5.579-3.221c-0.22-0.127-0.565-0.134-0.77-0.016l-4.825,2.785
			c-0.205,0.119-0.193,0.317,0.028,0.444L151.11,291.47z M300.547,246.73c-0.22-0.127-0.565-0.134-0.77-0.016l-11.875,6.857
			c-0.205,0.118-0.193,0.317,0.027,0.445l5.579,3.221c0.22,0.127,0.564,0.134,0.77,0.016l11.876-6.857
			c0.205-0.118,0.193-0.317-0.027-0.444L300.547,246.73z M284.96,255.729c-0.22-0.127-0.564-0.134-0.77-0.016l-4.825,2.785
			c-0.205,0.119-0.192,0.317,0.028,0.445l5.578,3.221c0.22,0.127,0.565,0.134,0.77,0.015l4.824-2.785
			c0.205-0.118,0.193-0.317-0.028-0.444L284.96,255.729z M189.445,308.574l4.825-2.785c0.205-0.119,0.193-0.317-0.028-0.445
			l-5.579-3.221c-0.22-0.127-0.564-0.134-0.77-0.016l-4.824,2.786c-0.205,0.118-0.193,0.317,0.027,0.444l5.579,3.221
			C188.895,308.685,189.24,308.692,189.445,308.574z M270.857,263.871c-0.22-0.127-0.565-0.134-0.77-0.016l-4.825,2.785
			c-0.205,0.119-0.193,0.318,0.028,0.445l5.579,3.221c0.22,0.127,0.565,0.134,0.77,0.016l4.825-2.786
			c0.205-0.118,0.193-0.317-0.027-0.444L270.857,263.871z M307.598,242.659c-0.22-0.127-0.565-0.134-0.77-0.016l-4.825,2.786
			c-0.204,0.118-0.193,0.317,0.028,0.444l5.579,3.221c0.22,0.127,0.565,0.134,0.77,0.016l4.825-2.785
			c0.205-0.119,0.193-0.317-0.027-0.444L307.598,242.659z M320.228,241.809l-13.549-7.823c-0.22-0.127-0.565-0.134-0.77-0.016
			l-4.825,2.786c-0.205,0.118-0.193,0.317,0.028,0.444l13.548,7.823c0.22,0.127,0.565,0.134,0.77,0.016l4.825-2.786
			C320.46,242.135,320.448,241.936,320.228,241.809z M244.507,279.084c-0.22-0.127-0.565-0.134-0.769-0.016l-5.938,3.428
			c-0.205,0.118-0.193,0.317,0.027,0.445l5.579,3.221c0.22,0.127,0.565,0.134,0.77,0.016l5.938-3.428
			c0.205-0.118,0.193-0.318-0.027-0.444L244.507,279.084z M262.321,268.799c-0.22-0.127-0.565-0.134-0.77-0.016l-7.423,4.286
			c-0.205,0.118-0.192,0.317,0.027,0.444l5.579,3.221c0.22,0.127,0.564,0.134,0.77,0.016l7.422-4.285
			c0.205-0.118,0.193-0.317-0.027-0.444L262.321,268.799z M228.178,288.512c-0.22-0.127-0.565-0.134-0.77-0.016l-39.71,22.927
			c-0.205,0.118-0.193,0.317,0.027,0.444l5.579,3.221c0.22,0.127,0.564,0.135,0.77,0.016l39.71-22.926
			c0.205-0.119,0.193-0.318-0.027-0.445L228.178,288.512z M186.242,312.724c-0.22-0.127-0.565-0.134-0.77-0.016l-5.938,3.428
			c-0.205,0.118-0.193,0.317,0.028,0.445l5.579,3.221c0.22,0.127,0.565,0.134,0.77,0.015l5.938-3.428
			c0.204-0.118,0.193-0.317-0.028-0.444L186.242,312.724z M236.343,283.798c-0.22-0.127-0.564-0.134-0.77-0.016l-5.938,3.428
			c-0.205,0.119-0.193,0.317,0.027,0.445l5.579,3.22c0.22,0.128,0.565,0.135,0.77,0.016l5.938-3.429
			c0.205-0.118,0.193-0.317-0.028-0.444L236.343,283.798z M178.077,317.438c-0.22-0.127-0.564-0.134-0.77-0.016l-5.938,3.428
			c-0.205,0.119-0.192,0.317,0.028,0.444l5.578,3.221c0.22,0.127,0.564,0.134,0.77,0.016l5.938-3.428
			c0.205-0.119,0.193-0.317-0.027-0.445L178.077,317.438z M252.672,274.371c-0.22-0.127-0.564-0.135-0.77-0.016l-5.938,3.428
			c-0.204,0.118-0.193,0.317,0.028,0.444l5.579,3.221c0.22,0.127,0.565,0.134,0.769,0.016l5.938-3.428
			c0.205-0.118,0.193-0.317-0.028-0.444L252.672,274.371z M277.908,259.8c-0.22-0.127-0.565-0.134-0.77-0.016l-4.824,2.786
			c-0.205,0.118-0.193,0.317,0.028,0.444l5.578,3.221c0.22,0.127,0.565,0.134,0.77,0.016l4.825-2.785
			c0.205-0.119,0.192-0.317-0.027-0.445L277.908,259.8z M293.358,248.579l4.824-2.785c0.205-0.119,0.193-0.318-0.027-0.445
			l-5.579-3.221c-0.22-0.127-0.565-0.134-0.77-0.016l-4.825,2.785c-0.204,0.118-0.193,0.317,0.028,0.445l5.579,3.221
			C292.809,248.691,293.154,248.698,293.358,248.579z M261.832,248.376l4.824-2.785c0.205-0.118,0.193-0.317-0.027-0.445
			l-5.579-3.22c-0.22-0.127-0.564-0.135-0.77-0.016l-4.825,2.785c-0.205,0.119-0.193,0.317,0.028,0.444l5.578,3.22
			C261.283,248.487,261.627,248.495,261.832,248.376z M245.855,276.005l14.103-8.142c0.205-0.118,0.193-0.317-0.028-0.444
			l-5.579-3.221c-0.22-0.127-0.564-0.134-0.77-0.016l-14.103,8.142c-0.205,0.118-0.193,0.317,0.027,0.444l5.578,3.22
			C245.306,276.117,245.65,276.124,245.855,276.005z M285.538,252.635c0.22,0.127,0.565,0.134,0.769,0.016l4.825-2.785
			c0.205-0.119,0.193-0.317-0.027-0.445l-5.579-3.221c-0.22-0.127-0.565-0.134-0.769-0.016l-4.825,2.786
			c-0.205,0.118-0.192,0.317,0.027,0.444L285.538,252.635z M278.338,248.049l4.825-2.786c0.204-0.118,0.193-0.317-0.028-0.444
			l-5.578-3.221c-0.22-0.127-0.565-0.134-0.77-0.016l-4.825,2.785c-0.205,0.119-0.193,0.317,0.027,0.444l5.579,3.221
			C277.788,248.161,278.133,248.167,278.338,248.049z M238.804,280.077l4.825-2.786c0.205-0.118,0.193-0.317-0.027-0.444
			l-5.579-3.221c-0.22-0.127-0.565-0.134-0.77-0.016l-4.825,2.786c-0.205,0.118-0.193,0.317,0.028,0.444l5.579,3.221
			C238.254,280.188,238.599,280.195,238.804,280.077z M269.95,261.634c0.22,0.127,0.565,0.134,0.77,0.016l4.824-2.786
			c0.205-0.118,0.193-0.317-0.027-0.444l-5.579-3.221c-0.22-0.127-0.565-0.134-0.77-0.016l-4.825,2.785
			c-0.205,0.119-0.193,0.317,0.027,0.444L269.95,261.634z M203.548,300.432l4.824-2.786c0.205-0.118,0.193-0.317-0.027-0.444
			l-5.579-3.221c-0.22-0.127-0.564-0.134-0.77-0.016l-4.824,2.786c-0.205,0.118-0.193,0.317,0.027,0.444l5.579,3.221
			C202.998,300.543,203.342,300.55,203.548,300.432z M210.599,296.361l4.825-2.785c0.205-0.119,0.193-0.317-0.028-0.444
			l-5.579-3.221c-0.22-0.127-0.564-0.134-0.769-0.015l-4.825,2.785c-0.205,0.118-0.193,0.317,0.027,0.444l5.579,3.221
			C210.049,296.472,210.394,296.479,210.599,296.361z M196.496,304.503l4.825-2.785c0.205-0.118,0.193-0.317-0.027-0.444
			l-5.579-3.221c-0.22-0.127-0.565-0.135-0.77-0.016l-4.824,2.785c-0.205,0.118-0.193,0.317,0.027,0.444l5.579,3.221
			C195.947,304.614,196.291,304.621,196.496,304.503z M224.701,288.219l4.825-2.785c0.205-0.119,0.193-0.318-0.027-0.445
			l-5.579-3.221c-0.22-0.127-0.565-0.134-0.77-0.016l-4.825,2.786c-0.205,0.118-0.193,0.317,0.027,0.444l5.579,3.221
			C224.152,288.33,224.496,288.337,224.701,288.219z M217.65,292.289l4.824-2.785c0.205-0.118,0.193-0.317-0.027-0.444l-5.579-3.221
			c-0.22-0.127-0.565-0.134-0.77-0.016l-4.825,2.785c-0.205,0.119-0.193,0.318,0.028,0.445l5.579,3.221
			C217.1,292.401,217.445,292.408,217.65,292.289z M231.752,284.147l4.825-2.785c0.205-0.118,0.193-0.317-0.027-0.444l-5.579-3.221
			c-0.22-0.127-0.565-0.135-0.77-0.016l-4.825,2.785c-0.205,0.118-0.192,0.317,0.028,0.444l5.578,3.221
			C231.203,284.259,231.547,284.266,231.752,284.147z M264.012,223.923c0.22,0.127,0.565,0.134,0.77,0.016l4.825-2.786
			c0.205-0.118,0.193-0.317-0.027-0.444l-1.485-0.858c-0.22-0.127-0.565-0.134-0.77-0.016l-4.824,2.786
			c-0.204,0.118-0.193,0.317,0.028,0.444L264.012,223.923z M229.318,246.316c0.219,0.127,0.564,0.135,0.77,0.016l4.825-2.785
			c0.205-0.118,0.193-0.317-0.027-0.444l-5.578-3.221c-0.22-0.128-0.565-0.135-0.77-0.016l-4.824,2.786
			c-0.205,0.118-0.193,0.317,0.027,0.444L229.318,246.316z M243.421,238.174c0.22,0.127,0.564,0.134,0.769,0.016l4.825-2.785
			c0.205-0.119,0.193-0.317-0.027-0.445l-5.579-3.221c-0.22-0.127-0.565-0.134-0.77-0.016l-4.825,2.786
			c-0.204,0.118-0.193,0.318,0.028,0.444L243.421,238.174z M220.708,251.288c0.22,0.127,0.564,0.134,0.77,0.016l4.825-2.785
			c0.205-0.118,0.193-0.317-0.028-0.444l-5.579-3.221c-0.22-0.127-0.565-0.134-0.77-0.015l-4.825,2.785
			c-0.205,0.118-0.193,0.317,0.027,0.445L220.708,251.288z M236.369,242.246c0.22,0.127,0.565,0.134,0.77,0.016l4.824-2.786
			c0.204-0.118,0.193-0.317-0.028-0.444l-5.579-3.221c-0.22-0.127-0.564-0.134-0.769-0.016l-4.825,2.785
			c-0.205,0.119-0.193,0.317,0.027,0.444L236.369,242.246z M206.605,259.43c0.22,0.127,0.564,0.134,0.77,0.015l4.824-2.785
			c0.205-0.118,0.193-0.317-0.027-0.445l-5.579-3.221c-0.22-0.127-0.565-0.134-0.77-0.016l-4.825,2.785
			c-0.205,0.119-0.192,0.318,0.028,0.445L206.605,259.43z M213.656,255.359c0.22,0.127,0.565,0.134,0.77,0.016l4.825-2.786
			c0.205-0.118,0.193-0.317-0.028-0.444l-5.578-3.221c-0.22-0.127-0.565-0.134-0.77-0.016l-4.824,2.785
			c-0.205,0.119-0.193,0.317,0.027,0.445L213.656,255.359z M249.909,232.065c0.22,0.127,0.565,0.134,0.77,0.016l4.825-2.786
			c0.205-0.118,0.193-0.317-0.027-0.444l-1.485-0.857c-0.22-0.127-0.564-0.134-0.769-0.016l-4.825,2.786
			c-0.205,0.118-0.193,0.317,0.027,0.444L249.909,232.065z M271.063,219.851c0.22,0.127,0.565,0.135,0.77,0.016l4.825-2.785
			c0.205-0.119,0.193-0.317-0.028-0.444l-1.485-0.858c-0.22-0.127-0.565-0.134-0.77-0.015l-4.825,2.785
			c-0.205,0.118-0.193,0.318,0.027,0.445L271.063,219.851z M282.782,226.617c0.22,0.127,0.565,0.134,0.77,0.016l4.825-2.785
			c0.205-0.119,0.193-0.317-0.027-0.444l-5.579-3.221c-0.22-0.127-0.565-0.134-0.77-0.016l-4.825,2.786
			c-0.205,0.118-0.193,0.317,0.027,0.444L282.782,226.617z M300.41,244.508l4.825-2.786c0.205-0.118,0.193-0.317-0.027-0.444
			l-5.579-3.221c-0.22-0.127-0.565-0.134-0.77-0.016l-4.824,2.785c-0.205,0.119-0.193,0.317,0.028,0.444l5.578,3.221
			C299.86,244.62,300.205,244.626,300.41,244.508z M256.961,227.993c0.22,0.127,0.564,0.135,0.77,0.016l4.825-2.785
			c0.205-0.118,0.193-0.317-0.027-0.444l-1.485-0.857c-0.22-0.127-0.565-0.134-0.77-0.016l-4.825,2.785
			c-0.204,0.119-0.193,0.317,0.028,0.444L256.961,227.993z M199.554,263.501c0.22,0.127,0.565,0.134,0.77,0.016l4.825-2.785
			c0.205-0.119,0.193-0.317-0.027-0.444l-5.579-3.221c-0.22-0.127-0.565-0.134-0.77-0.016l-4.825,2.786
			c-0.204,0.118-0.193,0.317,0.028,0.444L199.554,263.501z"/>
		<path id="XMLID_168_" style="fill:#263238;" d="M230.824,305.826l47.61-27.488c1.435-0.828,3.761-0.828,5.196,0l27.301,15.762
			c1.435,0.828,1.435,2.171,0,3l-47.611,27.488c-1.435,0.828-3.761,0.828-5.196,0l-27.3-15.762
			C229.389,307.997,229.389,306.654,230.824,305.826z"/>
	</g>
</g>
<g id="Shield">
	<g id="Shield_1_">
		<path id="XMLID_1436_" style="fill:#27DEBF;" d="M318.378,173.638c0-0.01,0.01-0.01,0.01-0.01l-0.06-0.04l-8.128-4.682
			c-0.47-0.21-1.16-0.01-1.99,0.62c-7.564,5.789-17.729,7.583-26.041,4.939c-0.531-0.495-1.041-1.018-1.521-1.577
			c-0.05-0.06-0.1-0.12-0.15-0.17h-0.01c-0.28-0.31-0.56-0.54-0.84-0.69l-0.14-0.08l-8.138-4.672c-0.93-0.44-1.77,0-2.33,1.38
			c-7.86,19.53-24.61,39.32-35.78,44.27c-0.83,0.37-1.6,0.94-2.2,1.64c-0.79,0.91-1.28,2.03-1.24,3.2l1.61,43.85
			c0,12.67,5.35,26.05,16.26,32.56l8.418,4.862l0.15,0.08c4.18,2.39,9.15,3.79,14.92,3.79c1.17,0,2.36-0.05,3.59-0.17
			c2.06-0.2,4.92-1.69,6.36-3.18c24.41-25.21,36.28-59.33,36.28-78.21l1.61-45.87C319.058,174.488,318.818,173.878,318.378,173.638z
			"/>
		<path id="XMLID_1457_" style="fill:#27DEBF;" d="M319.018,175.478l-1.61,45.87c0,18.88-11.87,53-36.28,78.21
			c-1.44,1.49-4.3,2.98-6.36,3.18c-1.23,0.12-2.42,0.17-3.59,0.17c-5.77,0-10.74-1.4-14.92-3.79l-0.15-0.08l-0.29-0.18
			c-10.91-6.51-16.26-19.89-16.26-32.56l-1.61-43.85c-0.04-1.17,0.45-2.29,1.24-3.2c0.6-0.7,1.37-1.27,2.2-1.64
			c11.17-4.95,27.92-24.74,35.78-44.27c0.56-1.38,1.41-1.83,2.34-1.39l0,0l0.14,0.08c0.28,0.15,0.56,0.38,0.84,0.69h0.01
			c0.05,0.05,0.1,0.11,0.15,0.17c8.34,9.71,24.74,9.7,35.69,1.32c0.83-0.63,1.52-0.83,1.99-0.62l0.06,0.04c0,0-0.01,0-0.01,0.01
			C318.818,173.878,319.058,174.488,319.018,175.478z"/>
		<g id="XMLID_1433_">
			<path id="XMLID_1454_" style="opacity:0.4;fill:#FFFFFF;" d="M318.332,173.583c-0.47-0.21-1.16-0.01-1.99,0.62
				c-10.31,7.89-25.46,8.36-34.15,0.26c8.31,2.65,18.46,0.85,26.02-4.94c0.83-0.63,1.52-0.83,1.99-0.62L318.332,173.583z"/>
			<path id="XMLID_1458_" style="opacity:0.4;fill:#FFFFFF;" d="M279.512,171.943c-0.93-0.44-1.78,0.01-2.34,1.39
				c-7.86,19.53-24.61,39.32-35.78,44.27c-0.83,0.37-1.6,0.94-2.2,1.64c-0.21,0.24-0.4,0.5-0.56,0.77l-8.12-4.69
				c0.16-0.26,0.34-0.52,0.55-0.76c0.11-0.13,0.23-0.25,0.36-0.37l0.01-0.01c0.05-0.04,0.09-0.09,0.14-0.14
				c0.05-0.04,0.09-0.08,0.14-0.13c0.46-0.4,0.99-0.75,1.55-0.99c11.17-4.95,27.92-24.74,35.78-44.27c0.56-1.38,1.4-1.82,2.33-1.38
				L279.512,171.943z"/>
			<path id="XMLID_1463_" style="fill:#27DEBF;" d="M231.432,214.173c0.04-0.05,0.09-0.09,0.14-0.13c-0.05,0.05-0.09,0.1-0.14,0.14
				C231.432,214.183,231.421,214.173,231.432,214.173z"/>
			<path id="XMLID_1455_" style="opacity:0.15;" d="M231.572,214.043c-0.05,0.05-0.09,0.1-0.14,0.14c0,0-0.01-0.01,0-0.01
				C231.471,214.123,231.521,214.083,231.572,214.043z"/>
		</g>
		<path id="XMLID_1453_" style="opacity:0.15;" d="M256.262,299.113l-0.15-0.07l-8.42-4.87c-10.91-6.51-16.26-19.89-16.26-32.56
			l-1.61-43.85c-0.03-0.86,0.23-1.7,0.69-2.44l8.12,4.69c-0.45,0.74-0.71,1.57-0.68,2.43l1.61,43.85c0,12.67,5.35,26.05,16.26,32.56
			l0.29,0.18L256.262,299.113z"/>
		<g id="XMLID_308_">
			<path id="XMLID_332_" style="fill:#455A64;" d="M284.982,258.766l-12.996,7.503L274,242.76c-1.555-0.822-2.545-2.844-2.545-5.748
				c0-5.177,3.147-11.19,7.03-13.432c3.882-2.241,7.029,0.138,7.029,5.315c0,2.904-0.991,6.07-2.545,8.687L284.982,258.766z"/>
			<polygon id="XMLID_327_" style="fill:#37474F;" points="284.982,258.766 273.211,251.97 271.986,266.27 			"/>
			<path id="XMLID_313_" style="fill:#37474F;" d="M278.485,223.58c-2.54,1.467-4.759,4.55-5.995,7.955l10.479,6.05l0-0.003
				c1.555-2.617,2.545-5.783,2.545-8.687C285.514,223.718,282.366,221.339,278.485,223.58z"/>
		</g>
	</g>
</g>
<g id="Key">
	<g id="Key_1_">
		<path id="XMLID_369_" style="fill:#27DEBF;" d="M115.918,395.335l0,3.909c-0.016,4.593,3.01,9.189,9.08,12.693
			c9.141,5.277,22.566,6.564,33.808,3.873l10.441,6.028l8.022-1.814l5.475,3.161l0.299,6.617l2.949,1.703l7.408,0.651l5.324,2.97
			v3.73l6.681,3.857h16.99l6.09-3.514v-3.945l-54.339-27.427c2.503-2.655,3.758-5.599,3.764-8.542l0-3.951
			c-0.817-3.814-3.995-5.782-9.069-8.711c-12.107-6.99-31.736-6.99-43.843,0C119.555,389.767,116.467,391.226,115.918,395.335z
			 M132.561,390.769c3.43-1.98,8.99-1.98,12.42,0c3.43,1.98,3.43,5.191,0,7.171c-3.43,1.98-8.99,1.98-12.42,0
			C129.131,395.96,129.131,392.749,132.561,390.769z"/>
		<path id="XMLID_306_" style="opacity:0.1;" d="M115.918,395.335l0,3.909c-0.016,4.593,3.01,9.189,9.08,12.693
			c9.141,5.277,22.566,6.564,33.808,3.873l10.441,6.028l8.022-1.814l5.475,3.161l0.299,6.617l2.949,1.703l7.408,0.651l5.324,2.97
			v3.73l6.681,3.857h16.99l6.09-3.514v-3.945l-54.339-27.427c2.503-2.655,3.758-5.599,3.764-8.542l0-3.951
			c-0.817-3.814-3.995-5.782-9.069-8.711c-12.107-6.99-31.736-6.99-43.843,0C119.555,389.767,116.467,391.226,115.918,395.335z
			 M132.561,390.769c3.43-1.98,8.99-1.98,12.42,0c3.43,1.98,3.43,5.191,0,7.171c-3.43,1.98-8.99,1.98-12.42,0
			C129.131,395.96,129.131,392.749,132.561,390.769z"/>
		<path id="XMLID_377_" style="fill:#27DEBF;" d="M124.998,407.992c9.141,5.277,22.566,6.564,33.808,3.873l10.441,6.028l8.022-1.813
			l5.475,3.161l0.299,6.617l2.949,1.703l7.408,0.651l5.776,3.223l-0.452,3.477l6.681,3.857h16.99l6.09-3.514l-54.339-31.372
			c6.4-6.789,4.643-15.46-5.305-21.204c-12.107-6.99-31.736-6.99-43.843,0C112.891,389.668,112.891,401.002,124.998,407.992z
			 M132.561,386.824c3.43-1.98,8.99-1.98,12.42,0c3.43,1.98,3.43,5.191,0,7.171c-3.43,1.98-8.99,1.98-12.42,0
			C129.131,392.014,129.131,388.804,132.561,386.824z"/>
		<path style="opacity:0.3;" d="M146.92,409.8c-7.686,0-14.861-1.698-20.204-4.782c-4.68-2.703-7.363-6.232-7.363-9.683
			c0-3.451,2.684-6.98,7.363-9.682c5.343-3.084,12.519-4.782,20.205-4.782c7.686,0,14.861,1.698,20.204,4.782
			c4.679,2.703,7.363,6.232,7.363,9.683c0,3.451-2.684,6.98-7.362,9.682C161.781,408.102,154.606,409.8,146.92,409.8z
			 M146.92,382.245c-7.448,0-14.38,1.633-19.518,4.598c-4.242,2.45-6.676,5.545-6.676,8.492c0,2.947,2.434,6.042,6.676,8.493
			c5.137,2.965,12.069,4.598,19.517,4.598c7.448,0,14.379-1.633,19.517-4.598c4.242-2.45,6.675-5.545,6.675-8.492
			c0-2.947-2.433-6.042-6.676-8.493C161.3,383.878,154.369,382.245,146.92,382.245z"/>
		<path id="XMLID_1237_" style="opacity:0.1;" d="M135.762,412.03v3.944c7.406,1.649,15.692,1.594,23.044-0.165v-3.944
			C151.455,413.624,143.169,413.679,135.762,412.03z"/>
		<polygon id="XMLID_383_" style="opacity:0.1;" points="169.247,417.893 169.247,421.838 177.269,420.025 177.269,416.079 		"/>
		<polygon id="XMLID_384_" style="opacity:0.1;" points="182.744,419.24 182.744,423.186 183.043,429.803 183.043,425.858 		"/>
		<polygon id="XMLID_385_" style="opacity:0.1;" points="185.992,427.561 185.992,431.506 193.4,432.157 193.4,428.211 		"/>
		<rect id="XMLID_992_" x="205.406" y="438.769" style="opacity:0.1;" width="16.99" height="3.945"/>
		<polygon id="XMLID_1064_" style="opacity:0.15;" points="228.485,435.255 228.485,439.2 222.395,442.714 222.395,438.769 
			225.064,437.228 225.064,438.931 226.537,438.081 226.537,436.36 		"/>
		<polygon id="XMLID_1062_" style="fill:#27DEBF;" points="226.537,436.36 225.064,437.228 225.064,438.931 226.537,438.081 		"/>
		<polygon id="XMLID_367_" style="opacity:0.15;" points="226.537,436.36 226.537,438.081 170.812,405.904 172.285,405.036 		"/>
		<polygon id="XMLID_350_" style="opacity:0.15;" points="172.285,405.036 172.285,406.757 170.812,405.904 		"/>
	</g>
</g>
<g id="Character">
	<g id="Character_1_">
		<g id="XMLID_1498_">
			<path id="XMLID_1499_" style="fill:#B16668;" d="M414.534,288.561c0.701-26.045-1.387-32.287-8.321-37.059l-2.686,15.092
				c0,0,3.159,17.785,2.82,23.708c-0.298,5.204-0.804,11.714-2.035,15.921c-0.218,0.745-0.721,1.372-1.379,1.784
				c-1.766,1.105-2.478,2.238-3.808,3.631c-1.041,1.09-1.928,1.361-1.791,1.708c0.176,0.446,0.919,1.167,2.195,0.778
				c0.642-0.196,1.471-0.698,2.505-1.359c0,0-0.739,2.17-2.566,4.41c-2.476,3.035-2.585,4.9,2.414,4.944
				c3.133,0.028,5.632-1.904,7.989-8.807c0.679-1.988,1.742-5.128,2.202-7.751C413.271,298.729,414.421,292.753,414.534,288.561z"/>
		</g>
		<path id="XMLID_1497_" style="fill:#27DEBF;" d="M400.379,249.524c3.31-0.48,7.809,0.214,10.715,5.412
			c2.906,5.198,3.619,14.139,3.95,23.03c0,0-5.773,4.828-12.698,2.454L400.379,249.524z"/>
		<path id="XMLID_8_" style="opacity:0.7;" d="M400.379,249.524c3.31-0.48,7.809,0.214,10.715,5.412
			c2.906,5.198,3.619,14.139,3.95,23.03c0,0-5.773,4.828-12.698,2.454L400.379,249.524z"/>
		<g id="XMLID_1262_">
			<g id="XMLID_1482_">
				<g id="XMLID_1493_">
					<path id="XMLID_1494_" style="fill:#263238;" d="M410.116,392.776c0.526,0.199,0.658,1.2,0.738,3.191
						c0.06,1.506,0.383,4.135-1.381,4.66c-1.764,0.525-4.349,0.257-5.479-1.163c-1.411-1.772-2.365-3.332-4.379-5.494
						c-1.747-1.875-3.637-3.626-4.342-6.256c-0.637-2.377-0.107-3.408,1.515-4.099c2.23-0.95,5.733,2.155,7.48,2.644
						C405.773,386.68,409.591,392.577,410.116,392.776z"/>
				</g>
				<g id="XMLID_1491_">
					<path id="XMLID_1492_" style="fill:#B16668;" d="M410.116,390.933v2.444c0,0-2.541,1.952-6.176,0.167
						c-0.107-0.236-0.641-3.496-0.641-3.496L410.116,390.933z"/>
				</g>
				<g id="XMLID_1489_">
					<path id="XMLID_1490_" style="fill:#263238;" d="M390.325,406.861c0,0,0.701,2.126,1.079,3.984
						c0.3,1.477,0.731,3.947,0.213,5.059c-0.518,1.111-2.536,1.829-5.665,1.805c-2.027-0.015-5.185,1.361-7.347,2.567
						c-2.233,1.246-6.878,1.743-9.241,1.465c-2.784-0.327-5.668-1.941-6.118-3.094c-0.45-1.153,0.148-2.35,6.708-5.146
						c0.06-0.026,9.12-2.972,12.295-6.475L390.325,406.861z"/>
				</g>
				<g id="XMLID_1487_">
					<path id="XMLID_1488_" style="fill:#B16668;" d="M390.325,404.219c0,0-0.009,1.814,0,2.85c0.009,1.036-1.215,2.581-4.383,2.468
						c-2.226-0.079-3.779-0.678-3.691-2.511v-2.642L390.325,404.219z"/>
				</g>
				<g id="XMLID_1485_">
					<path id="XMLID_1486_" style="fill:#37474F;" d="M411.706,358.501c-1.119-7.985-2.886-12.728-2.886-12.728
						s0.872-10.982,1.291-21.394c0.452-11.246-0.024-25.383,0.19-28.189c0,0-36.29-7.343-36.938,5.658
						c-0.647,13.001,1.432,46.095,1.862,51.806c0.429,5.711,1.416,10.762,2.596,20.019c1.164,9.136,4.429,30.71,4.429,30.71
						c4.146,2.241,8.074-0.165,8.074-0.165s2.554-25.995,2.286-32.585c-0.327-8.047-2.499-14.384-2.499-14.384
						s0.688-10.72,1.296-20.044c0.607-9.324,1.251-13.803,1.392-17.859l0.781-0.387c0,0,0.796,16.086,1.225,21.798
						c0.429,5.711,1.337,11.187,2.99,21.796c1.433,9.203,5.702,28.674,5.702,28.674c4.146,2.241,6.619-0.293,6.619-0.293
						S412.825,366.486,411.706,358.501z"/>
				</g>
				<g id="XMLID_1483_">
					<path id="XMLID_1484_" style="fill:#263238;" d="M392.799,319.346c0,0,8.803-4.338,13.21-8.251c0,0-4.091,5.765-9.462,8.32
						c0,0-1.91,19.983-1.9,19.587l-1.103-19.686L392.799,319.346z"/>
				</g>
			</g>
			<g id="XMLID_1479_">
				<g id="XMLID_1480_">
					<polygon id="XMLID_1481_" style="fill:#B16668;" points="384.964,245.406 387.111,257.225 397.787,256.445 395.545,243.047 
											"/>
				</g>
			</g>
			<g id="XMLID_1476_">
				<g id="XMLID_1477_">
					<path id="XMLID_1478_" style="fill:#27DEBF;" d="M409.062,255.582c-1.057-3.214-5.134-6.711-9.214-5.954
						c-7.495,1.392-13.44,2.881-17.866,4.462c-3.735,1.334-7.138,4.562-7.447,16.848c0,0-1.251,28.642-1.273,34.182
						c9.379,3.711,19.134,3.597,24.526,2.419c11.224-2.452,12.578-7.108,12.578-7.108s0.145-20.597-0.191-29.492
						C409.888,263.381,409.788,257.789,409.062,255.582z"/>
				</g>
			</g>
			<g id="XMLID_4_" style="opacity:0.15;">
				<g id="XMLID_5_">
					<path id="XMLID_6_" d="M409.062,255.582c-1.057-3.214-5.134-6.711-9.214-5.954c-7.495,1.392-13.44,2.881-17.866,4.462
						c-3.735,1.334-7.138,4.562-7.447,16.848c0,0-1.251,28.642-1.273,34.182c9.379,3.711,19.134,3.597,24.526,2.419
						c11.224-2.452,12.578-7.108,12.578-7.108s0.145-20.597-0.191-29.492C409.888,263.381,409.788,257.789,409.062,255.582z"/>
				</g>
			</g>
			<g id="XMLID_1471_">
				<g id="XMLID_1474_">
					<path id="XMLID_1475_" style="fill:#9A4A4D;" d="M376.727,231.03c0,0-2.707,4.316-2.379,4.727c0.329,0.411,2.4,0.741,2.4,0.741
						L376.727,231.03z"/>
				</g>
				<g id="XMLID_1472_">
					<path id="XMLID_1473_" style="fill:#B16668;" d="M384.245,219.088c-5.645,1.324-7.227,3.855-7.559,12.878
						c-0.346,9.428,0.681,12.366,1.947,13.606c0.854,0.837,5.498,0.887,7.824,0.189c2.912-0.874,9.48-3.369,12.474-8.175
						c3.522-5.654,4.31-13.228,0.335-16.238C393.673,217.112,386.542,218.549,384.245,219.088z"/>
				</g>
			</g>
			<g id="XMLID_1263_">
				<g id="XMLID_1468_">
					<g id="XMLID_1469_">
						<path id="XMLID_1470_" style="fill:#263238;" d="M376.748,221.435c1.657,2.837,5.253,4.193,5.253,4.193
							c1.082,1.233,0.486,6.043,2.391,6.807c0,0,0.818-3.501,3.761-3.129c2.963,0.374,3.446,4.129,1.637,6.457
							c-1.81,2.328-3.564,1.491-3.564,1.491s0.203,4.973,2.47,7.739c0,0,2.527,0.755,7.118-0.332
							c2.822-0.668,6.752-4.303,8.353-8.094c3.387-8.02,3.475-15.169-1.642-17.196c-0.63-3.646-3.548-5.221-6.849-5.902
							c-7.105-1.464-11.685,2.97-17.154,2.585C375.392,215.833,374.807,218.112,376.748,221.435z"/>
					</g>
				</g>
				<g id="XMLID_1264_">
					<g id="XMLID_1265_">
						<path id="XMLID_1467_" style="fill:#263238;" d="M402.642,220.593l3.349-2.077c-0.574-0.925-1.788-1.209-2.713-0.636
							C402.353,218.453,402.069,219.668,402.642,220.593z"/>
					</g>
				</g>
			</g>
		</g>
		<path id="XMLID_1259_" style="fill:#B16668;" d="M336.838,275.366c1.756,0.781,22.44,16.068,25.665,14.287
			c3.225-1.78,19.771-21.111,19.771-21.111c4.805-7.961,0-14.502,0-14.502s-5.306,0.98-8.079,5.177
			c-2.773,4.197-14.766,19.236-14.766,19.236c-2.962-1.482-5.913-2.986-8.855-4.508c-2.424-1.255-4.852-2.508-7.225-3.858
			c-0.592-0.337-1.374-0.664-1.865-1.15c-1.17-1.157-0.969-3.956-0.947-5.478c0.01-0.712,0.02-1.425,0.103-2.132
			c0.101-0.869,0.267-2.998-1.298-2.323c-0.302,0.131-0.546,0.367-0.747,0.628c-0.246,0.32-0.437,0.683-0.56,1.067
			c-0.295,0.92-0.2,1.927-0.471,2.855c-0.039,0.135-0.09,0.274-0.192,0.37c-0.128,0.122-0.317,0.157-0.494,0.151
			c-2.28-0.069-4.437-3.263-5.484-4.959c-0.466-0.755-0.925-1.596-1.729-1.971c-1.248-0.583-2.746,0.252-3.549,1.37
			c-1.024,1.426-1.332,3.278-1.129,5.022c0.28,2.417,1.207,4.653,2.972,6.298C330.633,272.332,333.537,273.898,336.838,275.366z"/>
		<path id="XMLID_1240_" style="fill:#27DEBF;" d="M383.959,253.417c-2.282,0.263-6.072,0.435-9.785,4.64
			c-4.341,4.917-10.059,12.944-10.059,12.944s1.552,7.784,10.004,9.418c0,0,7.827-8.019,10.004-12.434
			C386.299,263.569,386.646,256.397,383.959,253.417z"/>
		<path id="XMLID_7_" style="opacity:0.7;" d="M383.959,253.417c-2.282,0.263-6.072,0.435-9.785,4.64
			c-4.341,4.917-10.059,12.944-10.059,12.944s1.552,7.784,10.004,9.418c0,0,7.827-8.019,10.004-12.434
			C386.299,263.569,386.646,256.397,383.959,253.417z"/>
	</g>
</g>
</svg>
